STARTFONT 2.1
FONT -wiktorb-leggie-Medium-R-Normal--16----C--ISO10646-1
SIZE 4 72 72
FONTBOUNDINGBOX 9 16 0 -3
STARTPROPERTIES 16
DEFAULT_CHAR 65535
CHARSET_ENCODING "1"
CHARSET_REGISTRY "ISO10646"
SPACING "C"
FONT_ASCENT 13
FONT_DESCENT 3
X_HEIGHT 7
WEIGHT_NAME "Medium"
SLANT "R"
SETWIDTH_NAME "Normal"
PIXEL_SIZE 16
CAP_HEIGHT 10
COPYRIGHT "2012-2015 Wiktor W Brodlo. Released under SIL OFL"
COMMENT "Please visit http://wiktorb.eu/leggie"
FONT "leggie"
FOUNDRY "wiktorb"
AVERAGE_WIDTH 90
ENDPROPERTIES
CHARS 194
STARTCHAR SPACE
ENCODING 32
SWIDTH 2000 0
DWIDTH 8 0
BBX 9 16 0 -3
BITMAP
0000
0000
0000
0000
0000
0000
0000
0000
0000
0000
0000
0000
0000
0000
0000
0000
ENDCHAR
STARTCHAR EXCLAMATION MARK
ENCODING 33
SWIDTH 2000 0
DWIDTH 8 0
BBX 9 16 0 -3
BITMAP
0000
0000
0000
0800
0800
0800
0800
0800
0800
0800
0000
0000
0800
0000
0000
0000
ENDCHAR
STARTCHAR QUOTATION MARK
ENCODING 34
SWIDTH 2000 0
DWIDTH 8 0
BBX 9 16 0 -3
BITMAP
0000
0000
2200
2200
2200
2200
0000
0000
0000
0000
0000
0000
0000
0000
0000
0000
ENDCHAR
STARTCHAR NUMBER SIGN
ENCODING 35
SWIDTH 2000 0
DWIDTH 8 0
BBX 9 16 0 -3
BITMAP
0000
0000
0000
2200
2200
2200
7F00
2200
2200
7F00
2200
2200
2200
0000
0000
0000
ENDCHAR
STARTCHAR DOLLAR SIGN
ENCODING 36
SWIDTH 2000 0
DWIDTH 8 0
BBX 9 16 0 -3
BITMAP
0000
0400
0400
3F00
4000
4000
4000
3E00
0100
0100
0100
0100
7E00
1000
1000
0000
ENDCHAR
STARTCHAR PERCENT SIGN
ENCODING 37
SWIDTH 2000 0
DWIDTH 8 0
BBX 9 16 0 -3
BITMAP
0000
0000
0000
0000
3000
4900
4A00
3400
0800
1600
2900
4900
0600
0000
0000
0000
ENDCHAR
STARTCHAR AMPERSAND
ENCODING 38
SWIDTH 2000 0
DWIDTH 8 0
BBX 9 16 0 -3
BITMAP
0000
0000
0000
3C00
4200
4200
4200
3C00
4000
4100
4200
4200
3D00
0000
0000
0000
ENDCHAR
STARTCHAR APOSTROPHE
ENCODING 39
SWIDTH 2000 0
DWIDTH 8 0
BBX 9 16 0 -3
BITMAP
0000
0000
0800
0800
0800
0800
0000
0000
0000
0000
0000
0000
0000
0000
0000
0000
ENDCHAR
STARTCHAR LEFT PARENTHESIS
ENCODING 40
SWIDTH 2000 0
DWIDTH 8 0
BBX 9 16 0 -3
BITMAP
0400
0800
0800
0800
0800
0800
0800
0800
0800
0800
0800
0800
0800
0800
0800
0400
ENDCHAR
STARTCHAR RIGHT PARENTHESIS
ENCODING 41
SWIDTH 2000 0
DWIDTH 8 0
BBX 9 16 0 -3
BITMAP
1000
0800
0800
0800
0800
0800
0800
0800
0800
0800
0800
0800
0800
0800
0800
1000
ENDCHAR
STARTCHAR ASTERISK
ENCODING 42
SWIDTH 2000 0
DWIDTH 8 0
BBX 9 16 0 -3
BITMAP
0000
0000
0000
0000
0000
2200
1400
0800
7F00
0800
1400
2200
0000
0000
0000
0000
ENDCHAR
STARTCHAR PLUS SIGN
ENCODING 43
SWIDTH 2000 0
DWIDTH 8 0
BBX 9 16 0 -3
BITMAP
0000
0000
0000
0000
0000
0800
0800
0800
7F00
0800
0800
0800
0000
0000
0000
0000
ENDCHAR
STARTCHAR COMMA
ENCODING 44
SWIDTH 2000 0
DWIDTH 8 0
BBX 9 16 0 -3
BITMAP
0000
0000
0000
0000
0000
0000
0000
0000
0000
0000
0000
0000
0800
1000
0000
0000
ENDCHAR
STARTCHAR HYPHEN-MINUS
ENCODING 45
SWIDTH 2000 0
DWIDTH 8 0
BBX 9 16 0 -3
BITMAP
0000
0000
0000
0000
0000
0000
0000
0000
7F00
0000
0000
0000
0000
0000
0000
0000
ENDCHAR
STARTCHAR FULL STOP
ENCODING 46
SWIDTH 2000 0
DWIDTH 8 0
BBX 9 16 0 -3
BITMAP
0000
0000
0000
0000
0000
0000
0000
0000
0000
0000
0000
0000
0800
0000
0000
0000
ENDCHAR
STARTCHAR SOLIDUS
ENCODING 47
SWIDTH 2000 0
DWIDTH 8 0
BBX 9 16 0 -3
BITMAP
0000
0100
0100
0200
0200
0400
0400
0800
0800
1000
1000
2000
2000
4000
4000
0000
ENDCHAR
STARTCHAR DIGIT ZERO
ENCODING 48
SWIDTH 2000 0
DWIDTH 8 0
BBX 9 16 0 -3
BITMAP
0000
0000
0000
3E00
4100
4100
4500
4900
5100
4100
4100
4100
3E00
0000
0000
0000
ENDCHAR
STARTCHAR DIGIT ONE
ENCODING 49
SWIDTH 2000 0
DWIDTH 8 0
BBX 9 16 0 -3
BITMAP
0000
0000
0000
0400
0C00
1400
0400
0400
0400
0400
0400
0400
0400
0000
0000
0000
ENDCHAR
STARTCHAR DIGIT TWO
ENCODING 50
SWIDTH 2000 0
DWIDTH 8 0
BBX 9 16 0 -3
BITMAP
0000
0000
0000
7E00
0100
0100
0100
0200
0400
0800
1000
2000
7F00
0000
0000
0000
ENDCHAR
STARTCHAR DIGIT THREE
ENCODING 51
SWIDTH 2000 0
DWIDTH 8 0
BBX 9 16 0 -3
BITMAP
0000
0000
0000
7E00
0100
0100
0100
0E00
0100
0100
0100
0100
7E00
0000
0000
0000
ENDCHAR
STARTCHAR DIGIT FOUR
ENCODING 52
SWIDTH 2000 0
DWIDTH 8 0
BBX 9 16 0 -3
BITMAP
0000
0000
0000
0100
0300
0500
0900
1100
2100
7F00
0100
0100
0100
0000
0000
0000
ENDCHAR
STARTCHAR DIGIT FIVE
ENCODING 53
SWIDTH 2000 0
DWIDTH 8 0
BBX 9 16 0 -3
BITMAP
0000
0000
0000
7F00
4000
4000
7E00
0100
0100
0100
0100
0100
7E00
0000
0000
0000
ENDCHAR
STARTCHAR DIGIT SIX
ENCODING 54
SWIDTH 2000 0
DWIDTH 8 0
BBX 9 16 0 -3
BITMAP
0000
0000
0000
3E00
4000
4000
7E00
4100
4100
4100
4100
4100
3E00
0000
0000
0000
ENDCHAR
STARTCHAR DIGIT SEVEN
ENCODING 55
SWIDTH 2000 0
DWIDTH 8 0
BBX 9 16 0 -3
BITMAP
0000
0000
0000
7F00
0100
0100
0100
0200
0400
0800
0800
0800
0800
0000
0000
0000
ENDCHAR
STARTCHAR DIGIT EIGHT
ENCODING 56
SWIDTH 2000 0
DWIDTH 8 0
BBX 9 16 0 -3
BITMAP
0000
0000
0000
3E00
4100
4100
4100
3E00
4100
4100
4100
4100
3E00
0000
0000
0000
ENDCHAR
STARTCHAR DIGIT NINE
ENCODING 57
SWIDTH 2000 0
DWIDTH 8 0
BBX 9 16 0 -3
BITMAP
0000
0000
0000
3E00
4100
4100
4100
4100
4100
3F00
0100
0100
3E00
0000
0000
0000
ENDCHAR
STARTCHAR COLON
ENCODING 58
SWIDTH 2000 0
DWIDTH 8 0
BBX 9 16 0 -3
BITMAP
0000
0000
0000
0000
0000
0000
0800
0000
0000
0000
0000
0000
0800
0000
0000
0000
ENDCHAR
STARTCHAR SEMICOLON
ENCODING 59
SWIDTH 2000 0
DWIDTH 8 0
BBX 9 16 0 -3
BITMAP
0000
0000
0000
0000
0000
0000
0800
0000
0000
0000
0000
0000
0800
1000
0000
0000
ENDCHAR
STARTCHAR LESS-THAN SIGN
ENCODING 60
SWIDTH 2000 0
DWIDTH 8 0
BBX 9 16 0 -3
BITMAP
0000
0000
0100
0200
0400
0800
1000
2000
4000
2000
1000
0800
0400
0200
0100
0000
ENDCHAR
STARTCHAR EQUALS SIGN
ENCODING 61
SWIDTH 2000 0
DWIDTH 8 0
BBX 9 16 0 -3
BITMAP
0000
0000
0000
0000
0000
0000
0000
7F00
0000
7F00
0000
0000
0000
0000
0000
0000
ENDCHAR
STARTCHAR GREATER-THAN SIGN
ENCODING 62
SWIDTH 2000 0
DWIDTH 8 0
BBX 9 16 0 -3
BITMAP
0000
0000
4000
2000
1000
0800
0400
0200
0100
0200
0400
0800
1000
2000
4000
0000
ENDCHAR
STARTCHAR QUESTION MARK
ENCODING 63
SWIDTH 2000 0
DWIDTH 8 0
BBX 9 16 0 -3
BITMAP
0000
0000
0000
7E00
0100
0100
0100
0200
0400
0800
0000
0000
0800
0000
0000
0000
ENDCHAR
STARTCHAR COMMERCIAL AT
ENCODING 64
SWIDTH 2000 0
DWIDTH 8 0
BBX 9 16 0 -3
BITMAP
0000
0000
0000
3E00
4100
4100
4F00
5100
5100
5100
5100
4E00
4000
4000
3E00
0000
ENDCHAR
STARTCHAR LATIN CAPITAL LETTER A
ENCODING 65
SWIDTH 2000 0
DWIDTH 8 0
BBX 9 16 0 -3
BITMAP
0000
0000
0000
3E00
4100
4100
4100
4100
4100
7F00
4100
4100
4100
0000
0000
0000
ENDCHAR
STARTCHAR LATIN CAPITAL LETTER B
ENCODING 66
SWIDTH 2000 0
DWIDTH 8 0
BBX 9 16 0 -3
BITMAP
0000
0000
0000
7E00
4100
4100
4100
7E00
4100
4100
4100
4100
7E00
0000
0000
0000
ENDCHAR
STARTCHAR LATIN CAPITAL LETTER C
ENCODING 67
SWIDTH 2000 0
DWIDTH 8 0
BBX 9 16 0 -3
BITMAP
0000
0000
0000
3F00
4000
4000
4000
4000
4000
4000
4000
4000
3F00
0000
0000
0000
ENDCHAR
STARTCHAR LATIN CAPITAL LETTER D
ENCODING 68
SWIDTH 2000 0
DWIDTH 8 0
BBX 9 16 0 -3
BITMAP
0000
0000
0000
7E00
4100
4100
4100
4100
4100
4100
4100
4100
7E00
0000
0000
0000
ENDCHAR
STARTCHAR LATIN CAPITAL LETTER E
ENCODING 69
SWIDTH 2000 0
DWIDTH 8 0
BBX 9 16 0 -3
BITMAP
0000
0000
0000
7F00
4000
4000
4000
7C00
4000
4000
4000
4000
7F00
0000
0000
0000
ENDCHAR
STARTCHAR LATIN CAPITAL LETTER F
ENCODING 70
SWIDTH 2000 0
DWIDTH 8 0
BBX 9 16 0 -3
BITMAP
0000
0000
0000
7F00
4000
4000
4000
7C00
4000
4000
4000
4000
4000
0000
0000
0000
ENDCHAR
STARTCHAR LATIN CAPITAL LETTER G
ENCODING 71
SWIDTH 2000 0
DWIDTH 8 0
BBX 9 16 0 -3
BITMAP
0000
0000
0000
3F00
4000
4000
4000
4700
4100
4100
4100
4100
3F00
0000
0000
0000
ENDCHAR
STARTCHAR LATIN CAPITAL LETTER H
ENCODING 72
SWIDTH 2000 0
DWIDTH 8 0
BBX 9 16 0 -3
BITMAP
0000
0000
0000
4100
4100
4100
4100
7F00
4100
4100
4100
4100
4100
0000
0000
0000
ENDCHAR
STARTCHAR LATIN CAPITAL LETTER I
ENCODING 73
SWIDTH 2000 0
DWIDTH 8 0
BBX 9 16 0 -3
BITMAP
0000
0000
0000
1C00
0800
0800
0800
0800
0800
0800
0800
0800
1C00
0000
0000
0000
ENDCHAR
STARTCHAR LATIN CAPITAL LETTER J
ENCODING 74
SWIDTH 2000 0
DWIDTH 8 0
BBX 9 16 0 -3
BITMAP
0000
0000
0000
0100
0100
0100
0100
0100
0100
0100
0100
4100
3E00
0000
0000
0000
ENDCHAR
STARTCHAR LATIN CAPITAL LETTER K
ENCODING 75
SWIDTH 2000 0
DWIDTH 8 0
BBX 9 16 0 -3
BITMAP
0000
0000
0000
4100
4200
4400
4800
7000
5000
4800
4400
4200
4100
0000
0000
0000
ENDCHAR
STARTCHAR LATIN CAPITAL LETTER L
ENCODING 76
SWIDTH 2000 0
DWIDTH 8 0
BBX 9 16 0 -3
BITMAP
0000
0000
0000
4000
4000
4000
4000
4000
4000
4000
4000
4000
7F00
0000
0000
0000
ENDCHAR
STARTCHAR LATIN CAPITAL LETTER M
ENCODING 77
SWIDTH 2000 0
DWIDTH 8 0
BBX 9 16 0 -3
BITMAP
0000
0000
0000
4100
6300
5500
4900
4100
4100
4100
4100
4100
4100
0000
0000
0000
ENDCHAR
STARTCHAR LATIN CAPITAL LETTER N
ENCODING 78
SWIDTH 2000 0
DWIDTH 8 0
BBX 9 16 0 -3
BITMAP
0000
0000
0000
4100
4100
6100
5100
4900
4500
4300
4100
4100
4100
0000
0000
0000
ENDCHAR
STARTCHAR LATIN CAPITAL LETTER O
ENCODING 79
SWIDTH 2000 0
DWIDTH 8 0
BBX 9 16 0 -3
BITMAP
0000
0000
0000
3E00
4100
4100
4100
4100
4100
4100
4100
4100
3E00
0000
0000
0000
ENDCHAR
STARTCHAR LATIN CAPITAL LETTER P
ENCODING 80
SWIDTH 2000 0
DWIDTH 8 0
BBX 9 16 0 -3
BITMAP
0000
0000
0000
7E00
4100
4100
4100
4100
4100
7E00
4000
4000
4000
0000
0000
0000
ENDCHAR
STARTCHAR LATIN CAPITAL LETTER Q
ENCODING 81
SWIDTH 2000 0
DWIDTH 8 0
BBX 9 16 0 -3
BITMAP
0000
0000
0000
3E00
4100
4100
4100
4100
4100
4100
4500
4200
3D00
0000
0000
0000
ENDCHAR
STARTCHAR LATIN CAPITAL LETTER R
ENCODING 82
SWIDTH 2000 0
DWIDTH 8 0
BBX 9 16 0 -3
BITMAP
0000
0000
0000
7E00
4100
4100
4100
4100
4100
7E00
4400
4200
4100
0000
0000
0000
ENDCHAR
STARTCHAR LATIN CAPITAL LETTER S
ENCODING 83
SWIDTH 2000 0
DWIDTH 8 0
BBX 9 16 0 -3
BITMAP
0000
0000
0000
3F00
4000
4000
4000
3E00
0100
0100
0100
0100
7E00
0000
0000
0000
ENDCHAR
STARTCHAR LATIN CAPITAL LETTER T
ENCODING 84
SWIDTH 2000 0
DWIDTH 8 0
BBX 9 16 0 -3
BITMAP
0000
0000
0000
7F00
0800
0800
0800
0800
0800
0800
0800
0800
0800
0000
0000
0000
ENDCHAR
STARTCHAR LATIN CAPITAL LETTER U
ENCODING 85
SWIDTH 2000 0
DWIDTH 8 0
BBX 9 16 0 -3
BITMAP
0000
0000
0000
4100
4100
4100
4100
4100
4100
4100
4100
4100
3E00
0000
0000
0000
ENDCHAR
STARTCHAR LATIN CAPITAL LETTER V
ENCODING 86
SWIDTH 2000 0
DWIDTH 8 0
BBX 9 16 0 -3
BITMAP
0000
0000
0000
4100
4100
4100
4100
4100
2200
2200
1400
1400
0800
0000
0000
0000
ENDCHAR
STARTCHAR LATIN CAPITAL LETTER W
ENCODING 87
SWIDTH 2000 0
DWIDTH 8 0
BBX 9 16 0 -3
BITMAP
0000
0000
0000
4100
4100
4100
4100
4100
4100
4900
5500
6300
4100
0000
0000
0000
ENDCHAR
STARTCHAR LATIN CAPITAL LETTER X
ENCODING 88
SWIDTH 2000 0
DWIDTH 8 0
BBX 9 16 0 -3
BITMAP
0000
0000
0000
4100
4100
2200
1400
0800
1400
2200
4100
4100
4100
0000
0000
0000
ENDCHAR
STARTCHAR LATIN CAPITAL LETTER Y
ENCODING 89
SWIDTH 2000 0
DWIDTH 8 0
BBX 9 16 0 -3
BITMAP
0000
0000
0000
4100
4100
2200
1400
0800
0800
0800
0800
0800
0800
0000
0000
0000
ENDCHAR
STARTCHAR LATIN CAPITAL LETTER Z
ENCODING 90
SWIDTH 2000 0
DWIDTH 8 0
BBX 9 16 0 -3
BITMAP
0000
0000
0000
7F00
0100
0200
0400
0800
1000
2000
4000
4000
7F00
0000
0000
0000
ENDCHAR
STARTCHAR LEFT SQUARE BRACKET
ENCODING 91
SWIDTH 2000 0
DWIDTH 8 0
BBX 9 16 0 -3
BITMAP
0C00
0800
0800
0800
0800
0800
0800
0800
0800
0800
0800
0800
0800
0800
0800
0C00
ENDCHAR
STARTCHAR REVERSE SOLIDUS
ENCODING 92
SWIDTH 2000 0
DWIDTH 8 0
BBX 9 16 0 -3
BITMAP
0000
4000
4000
2000
2000
1000
1000
0800
0800
0400
0400
0200
0200
0100
0100
0000
ENDCHAR
STARTCHAR RIGHT SQUARE BRACKET
ENCODING 93
SWIDTH 2000 0
DWIDTH 8 0
BBX 9 16 0 -3
BITMAP
1800
0800
0800
0800
0800
0800
0800
0800
0800
0800
0800
0800
0800
0800
0800
1800
ENDCHAR
STARTCHAR CIRCUMFLEX ACCENT
ENCODING 94
SWIDTH 2000 0
DWIDTH 8 0
BBX 9 16 0 -3
BITMAP
0000
0000
0800
1400
2200
4100
0000
0000
0000
0000
0000
0000
0000
0000
0000
0000
ENDCHAR
STARTCHAR LOW LINE
ENCODING 95
SWIDTH 2000 0
DWIDTH 8 0
BBX 9 16 0 -3
BITMAP
0000
0000
0000
0000
0000
0000
0000
0000
0000
0000
0000
0000
0000
0000
7F00
0000
ENDCHAR
STARTCHAR GRAVE ACCENT
ENCODING 96
SWIDTH 2000 0
DWIDTH 8 0
BBX 9 16 0 -3
BITMAP
0000
0000
2000
1000
0800
0400
0000
0000
0000
0000
0000
0000
0000
0000
0000
0000
ENDCHAR
STARTCHAR LATIN SMALL LETTER A
ENCODING 97
SWIDTH 2000 0
DWIDTH 8 0
BBX 9 16 0 -3
BITMAP
0000
0000
0000
0000
0000
0000
3E00
0100
0100
3F00
4100
4100
3F00
0000
0000
0000
ENDCHAR
STARTCHAR LATIN SMALL LETTER B
ENCODING 98
SWIDTH 2000 0
DWIDTH 8 0
BBX 9 16 0 -3
BITMAP
0000
4000
4000
4000
4000
4000
7E00
4100
4100
4100
4100
4100
7E00
0000
0000
0000
ENDCHAR
STARTCHAR LATIN SMALL LETTER C
ENCODING 99
SWIDTH 2000 0
DWIDTH 8 0
BBX 9 16 0 -3
BITMAP
0000
0000
0000
0000
0000
0000
3F00
4000
4000
4000
4000
4000
3F00
0000
0000
0000
ENDCHAR
STARTCHAR LATIN SMALL LETTER D
ENCODING 100
SWIDTH 2000 0
DWIDTH 8 0
BBX 9 16 0 -3
BITMAP
0000
0100
0100
0100
0100
0100
3F00
4100
4100
4100
4100
4100
3F00
0000
0000
0000
ENDCHAR
STARTCHAR LATIN SMALL LETTER E
ENCODING 101
SWIDTH 2000 0
DWIDTH 8 0
BBX 9 16 0 -3
BITMAP
0000
0000
0000
0000
0000
0000
3E00
4100
4100
7F00
4000
4000
3E00
0000
0000
0000
ENDCHAR
STARTCHAR LATIN SMALL LETTER F
ENCODING 102
SWIDTH 2000 0
DWIDTH 8 0
BBX 9 16 0 -3
BITMAP
0000
0E00
1000
1000
1000
1000
1C00
1000
1000
1000
1000
1000
1000
0000
0000
0000
ENDCHAR
STARTCHAR LATIN SMALL LETTER G
ENCODING 103
SWIDTH 2000 0
DWIDTH 8 0
BBX 9 16 0 -3
BITMAP
0000
0000
0000
0000
0000
0000
3F00
4100
4100
4100
4100
4100
3F00
0100
0100
1E00
ENDCHAR
STARTCHAR LATIN SMALL LETTER H
ENCODING 104
SWIDTH 2000 0
DWIDTH 8 0
BBX 9 16 0 -3
BITMAP
0000
4000
4000
4000
4000
4000
7E00
4100
4100
4100
4100
4100
4100
0000
0000
0000
ENDCHAR
STARTCHAR LATIN SMALL LETTER I
ENCODING 105
SWIDTH 2000 0
DWIDTH 8 0
BBX 9 16 0 -3
BITMAP
0000
0000
0000
0400
0000
0000
1C00
0400
0400
0400
0400
0400
0400
0000
0000
0000
ENDCHAR
STARTCHAR LATIN SMALL LETTER J
ENCODING 106
SWIDTH 2000 0
DWIDTH 8 0
BBX 9 16 0 -3
BITMAP
0000
0000
0000
0400
0000
0000
1C00
0400
0400
0400
0400
0400
0400
0400
0400
1800
ENDCHAR
STARTCHAR LATIN SMALL LETTER K
ENCODING 107
SWIDTH 2000 0
DWIDTH 8 0
BBX 9 16 0 -3
BITMAP
0000
2000
2000
2000
2000
2000
2200
2400
2800
3000
2800
2400
2200
0000
0000
0000
ENDCHAR
STARTCHAR LATIN SMALL LETTER L
ENCODING 108
SWIDTH 2000 0
DWIDTH 8 0
BBX 9 16 0 -3
BITMAP
0000
2000
2000
2000
2000
2000
2000
2000
2000
2000
2000
2000
1E00
0000
0000
0000
ENDCHAR
STARTCHAR LATIN SMALL LETTER M
ENCODING 109
SWIDTH 2000 0
DWIDTH 8 0
BBX 9 16 0 -3
BITMAP
0000
0000
0000
0000
0000
0000
7600
4900
4900
4900
4900
4900
4900
0000
0000
0000
ENDCHAR
STARTCHAR LATIN SMALL LETTER N
ENCODING 110
SWIDTH 2000 0
DWIDTH 8 0
BBX 9 16 0 -3
BITMAP
0000
0000
0000
0000
0000
0000
7E00
4100
4100
4100
4100
4100
4100
0000
0000
0000
ENDCHAR
STARTCHAR LATIN SMALL LETTER O
ENCODING 111
SWIDTH 2000 0
DWIDTH 8 0
BBX 9 16 0 -3
BITMAP
0000
0000
0000
0000
0000
0000
3E00
4100
4100
4100
4100
4100
3E00
0000
0000
0000
ENDCHAR
STARTCHAR LATIN SMALL LETTER P
ENCODING 112
SWIDTH 2000 0
DWIDTH 8 0
BBX 9 16 0 -3
BITMAP
0000
0000
0000
0000
0000
0000
7E00
4100
4100
4100
4100
4100
7E00
4000
4000
4000
ENDCHAR
STARTCHAR LATIN SMALL LETTER Q
ENCODING 113
SWIDTH 2000 0
DWIDTH 8 0
BBX 9 16 0 -3
BITMAP
0000
0000
0000
0000
0000
0000
3F00
4100
4100
4100
4100
4100
3F00
0100
0100
0100
ENDCHAR
STARTCHAR LATIN SMALL LETTER R
ENCODING 114
SWIDTH 2000 0
DWIDTH 8 0
BBX 9 16 0 -3
BITMAP
0000
0000
0000
0000
0000
0000
5F00
6000
4000
4000
4000
4000
4000
0000
0000
0000
ENDCHAR
STARTCHAR LATIN SMALL LETTER S
ENCODING 115
SWIDTH 2000 0
DWIDTH 8 0
BBX 9 16 0 -3
BITMAP
0000
0000
0000
0000
0000
0000
3F00
4000
4000
3E00
0100
0100
7E00
0000
0000
0000
ENDCHAR
STARTCHAR LATIN SMALL LETTER T
ENCODING 116
SWIDTH 2000 0
DWIDTH 8 0
BBX 9 16 0 -3
BITMAP
0000
1000
1000
1000
1000
1000
3800
1000
1000
1000
1000
1000
0E00
0000
0000
0000
ENDCHAR
STARTCHAR LATIN SMALL LETTER U
ENCODING 117
SWIDTH 2000 0
DWIDTH 8 0
BBX 9 16 0 -3
BITMAP
0000
0000
0000
0000
0000
0000
4100
4100
4100
4100
4100
4100
3F00
0000
0000
0000
ENDCHAR
STARTCHAR LATIN SMALL LETTER V
ENCODING 118
SWIDTH 2000 0
DWIDTH 8 0
BBX 9 16 0 -3
BITMAP
0000
0000
0000
0000
0000
0000
4100
4100
2200
2200
1400
1400
0800
0000
0000
0000
ENDCHAR
STARTCHAR LATIN SMALL LETTER W
ENCODING 119
SWIDTH 2000 0
DWIDTH 8 0
BBX 9 16 0 -3
BITMAP
0000
0000
0000
0000
0000
0000
4100
4100
4100
4900
5500
6300
4100
0000
0000
0000
ENDCHAR
STARTCHAR LATIN SMALL LETTER X
ENCODING 120
SWIDTH 2000 0
DWIDTH 8 0
BBX 9 16 0 -3
BITMAP
0000
0000
0000
0000
0000
0000
4100
2200
1400
0800
1400
2200
4100
0000
0000
0000
ENDCHAR
STARTCHAR LATIN SMALL LETTER Y
ENCODING 121
SWIDTH 2000 0
DWIDTH 8 0
BBX 9 16 0 -3
BITMAP
0000
0000
0000
0000
0000
0000
4100
4100
4100
4100
4100
4100
3F00
0100
0100
1E00
ENDCHAR
STARTCHAR LATIN SMALL LETTER Z
ENCODING 122
SWIDTH 2000 0
DWIDTH 8 0
BBX 9 16 0 -3
BITMAP
0000
0000
0000
0000
0000
0000
7F00
0200
0400
0800
1000
2000
7F00
0000
0000
0000
ENDCHAR
STARTCHAR LEFT CURLY BRACKET
ENCODING 123
SWIDTH 2000 0
DWIDTH 8 0
BBX 9 16 0 -3
BITMAP
0400
0800
0800
0800
0800
0800
0800
1000
0800
0800
0800
0800
0800
0800
0800
0400
ENDCHAR
STARTCHAR VERTICAL LINE
ENCODING 124
SWIDTH 2000 0
DWIDTH 8 0
BBX 9 16 0 -3
BITMAP
0800
0800
0800
0800
0800
0800
0800
0800
0800
0800
0800
0800
0800
0800
0800
0800
ENDCHAR
STARTCHAR RIGHT CURLY BRACKET
ENCODING 125
SWIDTH 2000 0
DWIDTH 8 0
BBX 9 16 0 -3
BITMAP
1000
0800
0800
0800
0800
0800
0800
0400
0800
0800
0800
0800
0800
0800
0800
1000
ENDCHAR
STARTCHAR TILDE
ENCODING 126
SWIDTH 2000 0
DWIDTH 8 0
BBX 9 16 0 -3
BITMAP
0000
0000
0000
0000
0000
0000
0000
0000
7100
8E00
0000
0000
0000
0000
0000
0000
ENDCHAR
STARTCHAR NO-BREAK SPACE
ENCODING 160
SWIDTH 2000 0
DWIDTH 8 0
BBX 9 16 0 -3
BITMAP
0000
0000
0000
0000
0000
0000
0000
0000
0000
0000
0000
0000
0000
0000
0000
0000
ENDCHAR
STARTCHAR INVERTED EXCLAMATION MARK
ENCODING 161
SWIDTH 2000 0
DWIDTH 8 0
BBX 9 16 0 -3
BITMAP
0000
0000
0000
0000
0000
0000
0800
0000
0000
0800
0800
0800
0800
0800
0800
0800
ENDCHAR
STARTCHAR CENT SIGN
ENCODING 162
SWIDTH 2000 0
DWIDTH 8 0
BBX 9 16 0 -3
BITMAP
0000
0000
0000
0000
0400
0400
3F00
4000
4000
4000
4000
4000
3F00
0800
0800
0000
ENDCHAR
STARTCHAR POUND SIGN
ENCODING 163
SWIDTH 2000 0
DWIDTH 8 0
BBX 9 16 0 -3
BITMAP
0000
0000
0000
1E00
2000
2000
2000
7800
2000
2000
2000
2000
7F00
0000
0000
0000
ENDCHAR
STARTCHAR CURRENCY SIGN
ENCODING 164
SWIDTH 2000 0
DWIDTH 8 0
BBX 9 16 0 -3
BITMAP
0000
0000
0000
0000
0000
4100
3E00
2200
2200
2200
3E00
4100
0000
0000
0000
0000
ENDCHAR
STARTCHAR YEN SIGN
ENCODING 165
SWIDTH 2000 0
DWIDTH 8 0
BBX 9 16 0 -3
BITMAP
0000
0000
0000
4100
4100
2200
1400
0800
0800
1C00
0800
0800
0800
0000
0000
0000
ENDCHAR
STARTCHAR BROKEN BAR
ENCODING 166
SWIDTH 2000 0
DWIDTH 8 0
BBX 9 16 0 -3
BITMAP
0800
0800
0800
0800
0800
0800
0000
0000
0000
0000
0800
0800
0800
0800
0800
0800
ENDCHAR
STARTCHAR SECTION SIGN
ENCODING 167
SWIDTH 2000 0
DWIDTH 8 0
BBX 9 16 0 -3
BITMAP
0000
3F00
4000
4000
4000
3E00
4100
4100
4100
4100
4100
3E00
0100
0100
0100
7E00
ENDCHAR
STARTCHAR DIAERESIS
ENCODING 168
SWIDTH 2000 0
DWIDTH 8 0
BBX 9 16 0 -3
BITMAP
0000
2200
0000
0000
0000
0000
0000
0000
0000
0000
0000
0000
0000
0000
0000
0000
ENDCHAR
STARTCHAR COPYRIGHT SIGN
ENCODING 169
SWIDTH 2000 0
DWIDTH 8 0
BBX 9 16 0 -3
BITMAP
0000
0000
0000
3E00
4100
4100
4D00
5100
5100
5100
5100
4D00
4100
4100
3E00
0000
ENDCHAR
STARTCHAR FEMININE ORDINAL INDICATOR
ENCODING 170
SWIDTH 2000 0
DWIDTH 8 0
BBX 9 16 0 -3
BITMAP
0000
0000
0000
1C00
0200
1E00
2200
1E00
0000
0000
0000
0000
0000
0000
0000
0000
ENDCHAR
STARTCHAR LEFT-POINTING DOUBLE ANGLE QUOTATION MARK
ENCODING 171
SWIDTH 2000 0
DWIDTH 8 0
BBX 9 16 0 -3
BITMAP
0000
0000
0000
0000
0000
0900
1200
2400
4800
2400
1200
0900
0000
0000
0000
0000
ENDCHAR
STARTCHAR NOT SIGN
ENCODING 172
SWIDTH 2000 0
DWIDTH 8 0
BBX 9 16 0 -3
BITMAP
0000
0000
0000
0000
0000
0000
0000
0000
7F00
0100
0000
0000
0000
0000
0000
0000
ENDCHAR
STARTCHAR SOFT HYPHEN
ENCODING 173
SWIDTH 2000 0
DWIDTH 8 0
BBX 9 16 0 -3
BITMAP
0000
0000
0000
0000
0000
0000
0000
0000
3E00
0000
0000
0000
0000
0000
0000
0000
ENDCHAR
STARTCHAR REGISTERED SIGN
ENCODING 174
SWIDTH 2000 0
DWIDTH 8 0
BBX 9 16 0 -3
BITMAP
3E00
4100
5900
5500
5900
5500
4100
3E00
0000
0000
0000
0000
0000
0000
0000
0000
ENDCHAR
STARTCHAR MACRON
ENCODING 175
SWIDTH 2000 0
DWIDTH 8 0
BBX 9 16 0 -3
BITMAP
0000
7F00
0000
0000
0000
0000
0000
0000
0000
0000
0000
0000
0000
0000
0000
0000
ENDCHAR
STARTCHAR DEGREE SIGN
ENCODING 176
SWIDTH 2000 0
DWIDTH 8 0
BBX 9 16 0 -3
BITMAP
0000
0000
0000
0800
1400
0800
0000
0000
0000
0000
0000
0000
0000
0000
0000
0000
ENDCHAR
STARTCHAR PLUS-MINUS SIGN
ENCODING 177
SWIDTH 2000 0
DWIDTH 8 0
BBX 9 16 0 -3
BITMAP
0000
0000
0000
0000
0800
0800
0800
7F00
0800
0800
0800
0000
7F00
0000
0000
0000
ENDCHAR
STARTCHAR SUPERSCRIPT TWO
ENCODING 178
SWIDTH 2000 0
DWIDTH 8 0
BBX 9 16 0 -3
BITMAP
0000
3C00
0200
0200
0400
0800
1000
3E00
0000
0000
0000
0000
0000
0000
0000
0000
ENDCHAR
STARTCHAR SUPERSCRIPT THREE
ENCODING 179
SWIDTH 2000 0
DWIDTH 8 0
BBX 9 16 0 -3
BITMAP
0000
3C00
0200
0200
0C00
0200
0200
3C00
0000
0000
0000
0000
0000
0000
0000
0000
ENDCHAR
STARTCHAR ACUTE ACCENT
ENCODING 180
SWIDTH 2000 0
DWIDTH 8 0
BBX 9 16 0 -3
BITMAP
0000
0000
0400
0800
1000
0000
0000
0000
0000
0000
0000
0000
0000
0000
0000
0000
ENDCHAR
STARTCHAR MICRO SIGN
ENCODING 181
SWIDTH 2000 0
DWIDTH 8 0
BBX 9 16 0 -3
BITMAP
0000
0000
0000
0000
0000
0000
4100
4100
4100
4100
4100
4100
7E00
4000
4000
4000
ENDCHAR
STARTCHAR PILCROW SIGN
ENCODING 182
SWIDTH 2000 0
DWIDTH 8 0
BBX 9 16 0 -3
BITMAP
0000
0000
1F00
3D00
7D00
7D00
7D00
3D00
1D00
0500
0500
0500
0500
0000
0000
0000
ENDCHAR
STARTCHAR MIDDLE DOT
ENCODING 183
SWIDTH 2000 0
DWIDTH 8 0
BBX 9 16 0 -3
BITMAP
0000
0000
0000
0000
0000
0000
0000
0000
0800
0000
0000
0000
0000
0000
0000
0000
ENDCHAR
STARTCHAR CEDILLA
ENCODING 184
SWIDTH 2000 0
DWIDTH 8 0
BBX 9 16 0 -3
BITMAP
0000
0000
0000
0000
0000
0000
0000
0000
0000
0000
0000
0000
0000
0800
0400
1800
ENDCHAR
STARTCHAR SUPERSCRIPT ONE
ENCODING 185
SWIDTH 2000 0
DWIDTH 8 0
BBX 9 16 0 -3
BITMAP
0000
0400
0C00
1400
0400
0400
0400
0400
0000
0000
0000
0000
0000
0000
0000
0000
ENDCHAR
STARTCHAR MASCULINE ORDINAL INDICATOR
ENCODING 186
SWIDTH 2000 0
DWIDTH 8 0
BBX 9 16 0 -3
BITMAP
0000
1C00
2200
2200
2200
1C00
0000
0000
0000
0000
0000
0000
0000
0000
0000
0000
ENDCHAR
STARTCHAR RIGHT-POINTING DOUBLE ANGLE QUOTATION MARK
ENCODING 187
SWIDTH 2000 0
DWIDTH 8 0
BBX 9 16 0 -3
BITMAP
0000
0000
0000
0000
0000
4800
2400
1200
0900
1200
2400
4800
0000
0000
0000
0000
ENDCHAR
STARTCHAR VULGAR FRACTION ONE QUARTER
ENCODING 188
SWIDTH 2000 0
DWIDTH 8 0
BBX 9 16 0 -3
BITMAP
0000
0000
1000
3000
5000
1000
1000
1000
1100
0300
0500
0900
1F00
0100
0100
0000
ENDCHAR
STARTCHAR VULGAR FRACTION ONE HALF
ENCODING 189
SWIDTH 2000 0
DWIDTH 8 0
BBX 9 16 0 -3
BITMAP
0000
0000
1000
3000
5000
1000
1000
1000
1E00
0100
0100
0200
0400
0800
1F00
0000
ENDCHAR
STARTCHAR VULGAR FRACTION THREE QUARTERS
ENCODING 190
SWIDTH 2000 0
DWIDTH 8 0
BBX 9 16 0 -3
BITMAP
0000
0000
7800
0400
0400
1800
0400
0500
7B00
0500
0900
1F00
0100
0100
0000
0000
ENDCHAR
STARTCHAR INVERTED QUESTION MARK
ENCODING 191
SWIDTH 2000 0
DWIDTH 8 0
BBX 9 16 0 -3
BITMAP
0000
0000
0000
0000
0000
0000
0800
0000
0000
0800
1000
2000
4000
4000
4000
3F00
ENDCHAR
STARTCHAR LATIN CAPITAL LETTER A WITH GRAVE
ENCODING 192
SWIDTH 2000 0
DWIDTH 8 0
BBX 9 16 0 -3
BITMAP
1000
0800
0000
3E00
4100
4100
4100
4100
4100
7F00
4100
4100
4100
0000
0000
0000
ENDCHAR
STARTCHAR LATIN CAPITAL LETTER A WITH ACUTE
ENCODING 193
SWIDTH 2000 0
DWIDTH 8 0
BBX 9 16 0 -3
BITMAP
0400
0800
0000
3E00
4100
4100
4100
4100
4100
7F00
4100
4100
4100
0000
0000
0000
ENDCHAR
STARTCHAR LATIN CAPITAL LETTER A WITH CIRCUMFLEX
ENCODING 194
SWIDTH 2000 0
DWIDTH 8 0
BBX 9 16 0 -3
BITMAP
0800
1400
0000
3E00
4100
4100
4100
4100
4100
7F00
4100
4100
4100
0000
0000
0000
ENDCHAR
STARTCHAR LATIN CAPITAL LETTER A WITH TILDE
ENCODING 195
SWIDTH 2000 0
DWIDTH 8 0
BBX 9 16 0 -3
BITMAP
1900
2600
0000
3E00
4100
4100
4100
4100
4100
7F00
4100
4100
4100
0000
0000
0000
ENDCHAR
STARTCHAR LATIN CAPITAL LETTER A WITH DIAERESIS
ENCODING 196
SWIDTH 2000 0
DWIDTH 8 0
BBX 9 16 0 -3
BITMAP
0000
2200
0000
3E00
4100
4100
4100
4100
4100
7F00
4100
4100
4100
0000
0000
0000
ENDCHAR
STARTCHAR LATIN CAPITAL LETTER A WITH RING ABOVE
ENCODING 197
SWIDTH 2000 0
DWIDTH 8 0
BBX 9 16 0 -3
BITMAP
0800
1400
0800
3E00
4100
4100
4100
4100
4100
7F00
4100
4100
4100
0000
0000
0000
ENDCHAR
STARTCHAR LATIN CAPITAL LETTER AE
ENCODING 198
SWIDTH 2000 0
DWIDTH 8 0
BBX 9 16 0 -3
BITMAP
0000
0000
0000
3F00
4800
4800
4800
4E00
4800
7800
4800
4800
4F00
0000
0000
0000
ENDCHAR
STARTCHAR LATIN CAPITAL LETTER C WITH CEDILLA
ENCODING 199
SWIDTH 2000 0
DWIDTH 8 0
BBX 9 16 0 -3
BITMAP
0000
0000
0000
3F00
4000
4000
4000
4000
4000
4000
4000
4000
3F00
0400
0200
0C00
ENDCHAR
STARTCHAR LATIN CAPITAL LETTER E WITH GRAVE
ENCODING 200
SWIDTH 2000 0
DWIDTH 8 0
BBX 9 16 0 -3
BITMAP
1000
0800
0000
7F00
4000
4000
4000
7800
4000
4000
4000
4000
7F00
0000
0000
0000
ENDCHAR
STARTCHAR LATIN CAPITAL LETTER E WITH ACUTE
ENCODING 201
SWIDTH 2000 0
DWIDTH 8 0
BBX 9 16 0 -3
BITMAP
0400
0800
0000
7F00
4000
4000
4000
7800
4000
4000
4000
4000
7F00
0000
0000
0000
ENDCHAR
STARTCHAR LATIN CAPITAL LETTER E WITH CIRCUMFLEX
ENCODING 202
SWIDTH 2000 0
DWIDTH 8 0
BBX 9 16 0 -3
BITMAP
0800
1400
0000
7F00
4000
4000
4000
7800
4000
4000
4000
4000
7F00
0000
0000
0000
ENDCHAR
STARTCHAR LATIN CAPITAL LETTER E WITH DIAERESIS
ENCODING 203
SWIDTH 2000 0
DWIDTH 8 0
BBX 9 16 0 -3
BITMAP
0000
2200
0000
7F00
4000
4000
4000
7800
4000
4000
4000
4000
7F00
0000
0000
0000
ENDCHAR
STARTCHAR LATIN CAPITAL LETTER I WITH GRAVE
ENCODING 204
SWIDTH 2000 0
DWIDTH 8 0
BBX 9 16 0 -3
BITMAP
1000
0800
0000
1C00
0800
0800
0800
0800
0800
0800
0800
0800
1C00
0000
0000
0000
ENDCHAR
STARTCHAR LATIN CAPITAL LETTER I WITH ACUTE
ENCODING 205
SWIDTH 2000 0
DWIDTH 8 0
BBX 9 16 0 -3
BITMAP
0400
0800
0000
1C00
0800
0800
0800
0800
0800
0800
0800
0800
1C00
0000
0000
0000
ENDCHAR
STARTCHAR LATIN CAPITAL LETTER I WITH CIRCUMFLEX
ENCODING 206
SWIDTH 2000 0
DWIDTH 8 0
BBX 9 16 0 -3
BITMAP
0800
1400
0000
1C00
0800
0800
0800
0800
0800
0800
0800
0800
1C00
0000
0000
0000
ENDCHAR
STARTCHAR LATIN CAPITAL LETTER I WITH DIAERESIS
ENCODING 207
SWIDTH 2000 0
DWIDTH 8 0
BBX 9 16 0 -3
BITMAP
0000
1400
0000
1C00
0800
0800
0800
0800
0800
0800
0800
0800
1C00
0000
0000
0000
ENDCHAR
STARTCHAR LATIN CAPITAL LETTER ETH
ENCODING 208
SWIDTH 2000 0
DWIDTH 8 0
BBX 9 16 0 -3
BITMAP
0000
0000
0000
7E00
4100
4100
4100
F900
4100
4100
4100
4100
7E00
0000
0000
0000
ENDCHAR
STARTCHAR LATIN CAPITAL LETTER N WITH TILDE
ENCODING 209
SWIDTH 2000 0
DWIDTH 8 0
BBX 9 16 0 -3
BITMAP
1900
2600
0000
4100
4100
6100
5100
4900
4500
4300
4100
4100
4100
0000
0000
0000
ENDCHAR
STARTCHAR LATIN CAPITAL LETTER O WITH GRAVE
ENCODING 210
SWIDTH 2000 0
DWIDTH 8 0
BBX 9 16 0 -3
BITMAP
1000
0800
0000
3E00
4100
4100
4100
4100
4100
4100
4100
4100
3E00
0000
0000
0000
ENDCHAR
STARTCHAR LATIN CAPITAL LETTER O WITH ACUTE
ENCODING 211
SWIDTH 2000 0
DWIDTH 8 0
BBX 9 16 0 -3
BITMAP
0400
0800
0000
3E00
4100
4100
4100
4100
4100
4100
4100
4100
3E00
0000
0000
0000
ENDCHAR
STARTCHAR LATIN CAPITAL LETTER O WITH CIRCUMFLEX
ENCODING 212
SWIDTH 2000 0
DWIDTH 8 0
BBX 9 16 0 -3
BITMAP
0800
1400
0000
3E00
4100
4100
4100
4100
4100
4100
4100
4100
3E00
0000
0000
0000
ENDCHAR
STARTCHAR LATIN CAPITAL LETTER O WITH TILDE
ENCODING 213
SWIDTH 2000 0
DWIDTH 8 0
BBX 9 16 0 -3
BITMAP
1900
2600
0000
3E00
4100
4100
4100
4100
4100
4100
4100
4100
3E00
0000
0000
0000
ENDCHAR
STARTCHAR LATIN CAPITAL LETTER O WITH DIAERESIS
ENCODING 214
SWIDTH 2000 0
DWIDTH 8 0
BBX 9 16 0 -3
BITMAP
0000
2200
0000
3E00
4100
4100
4100
4100
4100
4100
4100
4100
3E00
0000
0000
0000
ENDCHAR
STARTCHAR MULTIPLICATION SIGN
ENCODING 215
SWIDTH 2000 0
DWIDTH 8 0
BBX 9 16 0 -3
BITMAP
0000
0000
0000
0000
0000
4100
2200
1400
0800
1400
2200
4100
0000
0000
0000
0000
ENDCHAR
STARTCHAR LATIN CAPITAL LETTER O WITH STROKE
ENCODING 216
SWIDTH 2000 0
DWIDTH 8 0
BBX 9 16 0 -3
BITMAP
0000
0000
0000
3F00
4300
4300
4500
4900
4900
5100
6100
6100
7E00
0000
0000
0000
ENDCHAR
STARTCHAR LATIN CAPITAL LETTER U WITH GRAVE
ENCODING 217
SWIDTH 2000 0
DWIDTH 8 0
BBX 9 16 0 -3
BITMAP
1000
0800
0000
4100
4100
4100
4100
4100
4100
4100
4100
4100
3E00
0000
0000
0000
ENDCHAR
STARTCHAR LATIN CAPITAL LETTER U WITH ACUTE
ENCODING 218
SWIDTH 2000 0
DWIDTH 8 0
BBX 9 16 0 -3
BITMAP
0400
0800
0000
4100
4100
4100
4100
4100
4100
4100
4100
4100
3E00
0000
0000
0000
ENDCHAR
STARTCHAR LATIN CAPITAL LETTER U WITH CIRCUMFLEX
ENCODING 219
SWIDTH 2000 0
DWIDTH 8 0
BBX 9 16 0 -3
BITMAP
0800
1400
0000
4100
4100
4100
4100
4100
4100
4100
4100
4100
3E00
0000
0000
0000
ENDCHAR
STARTCHAR LATIN CAPITAL LETTER U WITH DIAERESIS
ENCODING 220
SWIDTH 2000 0
DWIDTH 8 0
BBX 9 16 0 -3
BITMAP
0000
2200
0000
4100
4100
4100
4100
4100
4100
4100
4100
4100
3E00
0000
0000
0000
ENDCHAR
STARTCHAR LATIN CAPITAL LETTER Y WITH ACUTE
ENCODING 221
SWIDTH 2000 0
DWIDTH 8 0
BBX 9 16 0 -3
BITMAP
0400
0800
0000
4100
4100
2200
1400
0800
0800
0800
0800
0800
0800
0000
0000
0000
ENDCHAR
STARTCHAR LATIN CAPITAL LETTER THORN
ENCODING 222
SWIDTH 2000 0
DWIDTH 8 0
BBX 9 16 0 -3
BITMAP
0000
0000
0000
4000
4000
7E00
4100
4100
4100
4100
7E00
4000
4000
0000
0000
0000
ENDCHAR
STARTCHAR LATIN SMALL LETTER SHARP S
ENCODING 223
SWIDTH 2000 0
DWIDTH 8 0
BBX 9 16 0 -3
BITMAP
0000
3C00
4200
4200
4200
4200
4C00
4200
4100
4100
4100
4100
5E00
0000
0000
0000
ENDCHAR
STARTCHAR LATIN SMALL LETTER A WITH GRAVE
ENCODING 224
SWIDTH 2000 0
DWIDTH 8 0
BBX 9 16 0 -3
BITMAP
0000
0000
1000
0800
0000
0000
3E00
0100
0100
3F00
4100
4100
3F00
0000
0000
0000
ENDCHAR
STARTCHAR LATIN SMALL LETTER A WITH ACUTE
ENCODING 225
SWIDTH 2000 0
DWIDTH 8 0
BBX 9 16 0 -3
BITMAP
0000
0000
0400
0800
0000
0000
3E00
0100
0100
3F00
4100
4100
3F00
0000
0000
0000
ENDCHAR
STARTCHAR LATIN SMALL LETTER A WITH CIRCUMFLEX
ENCODING 226
SWIDTH 2000 0
DWIDTH 8 0
BBX 9 16 0 -3
BITMAP
0000
0000
0800
1400
0000
0000
3E00
0100
0100
3F00
4100
4100
3F00
0000
0000
0000
ENDCHAR
STARTCHAR LATIN SMALL LETTER A WITH TILDE
ENCODING 227
SWIDTH 2000 0
DWIDTH 8 0
BBX 9 16 0 -3
BITMAP
0000
0000
1900
2600
0000
0000
3E00
0100
0100
3F00
4100
4100
3F00
0000
0000
0000
ENDCHAR
STARTCHAR LATIN SMALL LETTER A WITH DIAERESIS
ENCODING 228
SWIDTH 2000 0
DWIDTH 8 0
BBX 9 16 0 -3
BITMAP
0000
0000
0000
2200
0000
0000
3E00
0100
0100
3F00
4100
4100
3F00
0000
0000
0000
ENDCHAR
STARTCHAR LATIN SMALL LETTER A WITH RING ABOVE
ENCODING 229
SWIDTH 2000 0
DWIDTH 8 0
BBX 9 16 0 -3
BITMAP
0000
0000
0800
1400
0800
0000
3E00
0100
0100
3F00
4100
4100
3F00
0000
0000
0000
ENDCHAR
STARTCHAR LATIN SMALL LETTER AE
ENCODING 230
SWIDTH 2000 0
DWIDTH 8 0
BBX 9 16 0 -3
BITMAP
0000
0000
0000
0000
0000
0000
7700
0880
0880
7F80
8800
8800
7700
0000
0000
0000
ENDCHAR
STARTCHAR LATIN SMALL LETTER C WITH CEDILLA
ENCODING 231
SWIDTH 2000 0
DWIDTH 8 0
BBX 9 16 0 -3
BITMAP
0000
0000
0000
0000
0000
0000
3F00
4000
4000
4000
4000
4000
3F00
0400
0200
0C00
ENDCHAR
STARTCHAR LATIN SMALL LETTER E WITH GRAVE
ENCODING 232
SWIDTH 2000 0
DWIDTH 8 0
BBX 9 16 0 -3
BITMAP
0000
0000
1000
0800
0000
0000
3E00
4100
4100
7F00
4000
4000
3E00
0000
0000
0000
ENDCHAR
STARTCHAR LATIN SMALL LETTER E WITH ACUTE
ENCODING 233
SWIDTH 2000 0
DWIDTH 8 0
BBX 9 16 0 -3
BITMAP
0000
0000
0400
0800
0000
0000
3E00
4100
4100
7F00
4000
4000
3E00
0000
0000
0000
ENDCHAR
STARTCHAR LATIN SMALL LETTER E WITH CIRCUMFLEX
ENCODING 234
SWIDTH 2000 0
DWIDTH 8 0
BBX 9 16 0 -3
BITMAP
0000
0000
0800
1400
0000
0000
3E00
4100
4100
7F00
4000
4000
3E00
0000
0000
0000
ENDCHAR
STARTCHAR LATIN SMALL LETTER E WITH DIAERESIS
ENCODING 235
SWIDTH 2000 0
DWIDTH 8 0
BBX 9 16 0 -3
BITMAP
0000
0000
0000
2200
0000
0000
3E00
4100
4100
7F00
4000
4000
3E00
0000
0000
0000
ENDCHAR
STARTCHAR LATIN SMALL LETTER I WITH GRAVE
ENCODING 236
SWIDTH 2000 0
DWIDTH 8 0
BBX 9 16 0 -3
BITMAP
0000
0000
0800
0400
0000
0000
1C00
0400
0400
0400
0400
0400
0400
0000
0000
0000
ENDCHAR
STARTCHAR LATIN SMALL LETTER I WITH ACUTE
ENCODING 237
SWIDTH 2000 0
DWIDTH 8 0
BBX 9 16 0 -3
BITMAP
0000
0000
0200
0400
0000
0000
1C00
0400
0400
0400
0400
0400
0400
0000
0000
0000
ENDCHAR
STARTCHAR LATIN SMALL LETTER I WITH CIRCUMFLEX
ENCODING 238
SWIDTH 2000 0
DWIDTH 8 0
BBX 9 16 0 -3
BITMAP
0000
0000
0800
1400
0000
0000
1C00
0400
0400
0400
0400
0400
0400
0000
0000
0000
ENDCHAR
STARTCHAR LATIN SMALL LETTER I WITH DIAERESIS
ENCODING 239
SWIDTH 2000 0
DWIDTH 8 0
BBX 9 16 0 -3
BITMAP
0000
0000
0000
1400
0000
0000
1C00
0400
0400
0400
0400
0400
0400
0000
0000
0000
ENDCHAR
STARTCHAR LATIN SMALL LETTER ETH
ENCODING 240
SWIDTH 2000 0
DWIDTH 8 0
BBX 9 16 0 -3
BITMAP
0000
1400
0800
1400
0200
0100
3D00
4300
4100
4100
4100
4100
3E00
0000
0000
0000
ENDCHAR
STARTCHAR LATIN SMALL LETTER N WITH TILDE
ENCODING 241
SWIDTH 2000 0
DWIDTH 8 0
BBX 9 16 0 -3
BITMAP
0000
0000
3200
4C00
0000
0000
7E00
4100
4100
4100
4100
4100
4100
0000
0000
0000
ENDCHAR
STARTCHAR LATIN SMALL LETTER O WITH GRAVE
ENCODING 242
SWIDTH 2000 0
DWIDTH 8 0
BBX 9 16 0 -3
BITMAP
0000
0000
1000
0800
0000
0000
3E00
4100
4100
4100
4100
4100
3E00
0000
0000
0000
ENDCHAR
STARTCHAR LATIN SMALL LETTER O WITH ACUTE
ENCODING 243
SWIDTH 2000 0
DWIDTH 8 0
BBX 9 16 0 -3
BITMAP
0000
0000
0400
0800
0000
0000
3E00
4100
4100
4100
4100
4100
3E00
0000
0000
0000
ENDCHAR
STARTCHAR LATIN SMALL LETTER O WITH CIRCUMFLEX
ENCODING 244
SWIDTH 2000 0
DWIDTH 8 0
BBX 9 16 0 -3
BITMAP
0000
0000
0800
1400
0000
0000
3E00
4100
4100
4100
4100
4100
3E00
0000
0000
0000
ENDCHAR
STARTCHAR LATIN SMALL LETTER O WITH TILDE
ENCODING 245
SWIDTH 2000 0
DWIDTH 8 0
BBX 9 16 0 -3
BITMAP
0000
0000
1900
2600
0000
0000
3E00
4100
4100
4100
4100
4100
3E00
0000
0000
0000
ENDCHAR
STARTCHAR LATIN SMALL LETTER O WITH DIAERESIS
ENCODING 246
SWIDTH 2000 0
DWIDTH 8 0
BBX 9 16 0 -3
BITMAP
0000
0000
0000
2200
0000
0000
3E00
4100
4100
4100
4100
4100
3E00
0000
0000
0000
ENDCHAR
STARTCHAR DIVISION SIGN
ENCODING 247
SWIDTH 2000 0
DWIDTH 8 0
BBX 9 16 0 -3
BITMAP
0000
0000
0000
0000
0000
0800
0000
0000
7F00
0000
0000
0800
0000
0000
0000
0000
ENDCHAR
STARTCHAR LATIN SMALL LETTER O WITH STROKE
ENCODING 248
SWIDTH 2000 0
DWIDTH 8 0
BBX 9 16 0 -3
BITMAP
0000
0000
0000
0000
0000
0000
3F00
4300
4500
4900
5100
6100
7E00
0000
0000
0000
ENDCHAR
STARTCHAR LATIN SMALL LETTER U WITH GRAVE
ENCODING 249
SWIDTH 2000 0
DWIDTH 8 0
BBX 9 16 0 -3
BITMAP
0000
0000
1000
0800
0000
0000
4100
4100
4100
4100
4100
4100
3F00
0000
0000
0000
ENDCHAR
STARTCHAR LATIN SMALL LETTER U WITH ACUTE
ENCODING 250
SWIDTH 2000 0
DWIDTH 8 0
BBX 9 16 0 -3
BITMAP
0000
0000
0400
0800
0000
0000
4100
4100
4100
4100
4100
4100
3F00
0000
0000
0000
ENDCHAR
STARTCHAR LATIN SMALL LETTER U WITH CIRCUMFLEX
ENCODING 251
SWIDTH 2000 0
DWIDTH 8 0
BBX 9 16 0 -3
BITMAP
0000
0000
0800
1400
0000
0000
4100
4100
4100
4100
4100
4100
3F00
0000
0000
0000
ENDCHAR
STARTCHAR LATIN SMALL LETTER U WITH DIAERESIS
ENCODING 252
SWIDTH 2000 0
DWIDTH 8 0
BBX 9 16 0 -3
BITMAP
0000
0000
0000
2200
0000
0000
4100
4100
4100
4100
4100
4100
3F00
0000
0000
0000
ENDCHAR
STARTCHAR LATIN SMALL LETTER Y WITH ACUTE
ENCODING 253
SWIDTH 2000 0
DWIDTH 8 0
BBX 9 16 0 -3
BITMAP
0000
0000
0400
0800
0000
0000
4100
4100
4100
4100
4100
4100
3F00
0100
0100
1E00
ENDCHAR
STARTCHAR LATIN SMALL LETTER THORN
ENCODING 254
SWIDTH 2000 0
DWIDTH 8 0
BBX 9 16 0 -3
BITMAP
0000
0000
0000
4000
4000
4000
7E00
4100
4100
4100
4100
4100
7E00
4000
4000
4000
ENDCHAR
STARTCHAR LATIN SMALL LETTER Y WITH DIAERESIS
ENCODING 255
SWIDTH 2000 0
DWIDTH 8 0
BBX 9 16 0 -3
BITMAP
0000
0000
0000
2200
0000
0000
4100
4100
4100
4100
4100
4100
3F00
0100
0100
1E00
ENDCHAR
STARTCHAR ZERO WIDTH NO-BREAK SPACE
ENCODING 65279
SWIDTH 2000 0
DWIDTH 8 0
BBX 9 16 0 -3
BITMAP
0000
0000
0000
0000
0000
0000
0000
0000
0000
0000
0000
0000
0000
0000
0000
0000
ENDCHAR
STARTCHAR REPLACEMENT CHARACTER
ENCODING 65533
SWIDTH 2000 0
DWIDTH 8 0
BBX 9 16 0 -3
BITMAP
0800
1C00
3E00
4300
7D00
7D00
7D00
7B00
7700
7700
7F00
7F00
7700
3E00
1C00
0800
ENDCHAR
STARTCHAR char65535
ENCODING 65535
SWIDTH 2000 0
DWIDTH 8 0
BBX 9 16 0 -3
BITMAP
0000
7F00
4100
6300
6300
5500
5500
4900
4900
5500
5500
6300
6300
4100
7F00
0000
ENDCHAR
ENDFONT
